<?xml version="1.0" encoding="UTF-8"?>
<!--Generator: Apple Native CoreSVG 341-->
<!DOCTYPE svg
PUBLIC "-//W3C//DTD SVG 1.1//EN"
       "http://www.w3.org/Graphics/SVG/1.1/DTD/svg11.dtd">
<svg version="1.1" xmlns="http://www.w3.org/2000/svg" xmlns:xlink="http://www.w3.org/1999/xlink" viewBox="0 0 624.023 773.789">
 <g>
  <rect height="773.789" opacity="0" width="624.023" x="0" y="0"/>
  <path d="M122.871 773.789L583.77 773.789C607.148 773.789 624.023 757.09 624.023 733.535C624.023 712.09 609.434 699.609 592.559 689.941C551.426 668.32 543.691 604.863 588.516 565.664C612.949 546.152 623.32 528.574 623.32 492.363L623.32 124.453C623.32 44.2969 579.902 0.175781 499.922 0.175781L123.398 0.175781C43.5938 0.175781 0 44.1211 0 124.453L0 650.391C0 730.195 43.7695 773.789 122.871 773.789ZM90.7031 507.305L90.7031 134.473C90.7031 106.172 104.414 91.0547 134.297 91.0547L489.023 91.0547C518.906 91.0547 532.617 106.172 532.617 134.473L532.617 477.246C532.617 490.605 525.059 498.164 510.996 498.164L137.285 498.164C119.707 498.164 104.062 501.328 90.7031 507.305ZM141.855 693.281C101.426 693.281 81.0352 668.848 81.0352 635.801C81.0352 603.809 103.359 578.672 143.613 578.672L479.18 578.672C482.344 578.672 485.508 578.496 488.145 578.145C470.039 616.113 471.094 659.004 489.375 693.281ZM131.66 534.551L187.734 534.551L187.734 67.3242L131.66 67.3242ZM271.055 432.773C288.633 432.773 299.883 423.281 304.98 402.363L317.637 364.043L404.121 364.043L416.602 402.363C421.699 423.281 432.773 432.773 450.527 432.773C471.27 432.773 483.75 420.645 483.75 400.781C483.75 395.156 482.52 387.949 479.18 377.93L415.195 196.875C405.879 168.574 387.773 154.863 360.176 154.863C333.105 154.863 315.879 168.398 306.387 196.875L242.402 377.93C239.062 387.949 237.656 395.156 237.656 400.781C237.656 420.645 250.137 432.773 271.055 432.773ZM330.82 313.594L359.297 219.023L362.285 219.023L390.762 313.594Z" fill="white" fill-opacity="0.85"/>
 </g>
</svg>
